<!DOCTYPE svg PUBLIC "-//W3C//DTD SVG 1.1//EN" "http://www.w3.org/Graphics/SVG/1.1/DTD/svg11.dtd">
<!-- Uploaded to: SVG Repo, www.svgrepo.com, Transformed by: SVG Repo Mixer Tools -->
<svg width="256px" height="256px" viewBox="-2.4 -2.4 28.80 28.80" fill="none" xmlns="http://www.w3.org/2000/svg" transform="matrix(1, 0, 0, 1, 0, 0)">
<g id="SVGRepo_bgCarrier" stroke-width="0">
<path transform="translate(-2.4, -2.4), scale(0.8999999999999999)" d="M16,28.314856090582907C18.813646398655383,29.041893166594917,21.876674913632844,30.479845279727616,24.493864343205068,29.216710901960187C27.12210792213465,27.948241459060494,28.354961924686712,24.806195472940015,29.110467555679918,21.987349915040046C29.798331743127886,19.42087942205756,29.562599795764488,16.643456768594703,28.518610366921006,14.200095558256313C27.60258735431278,12.056227972103002,25.021094004593145,11.248660980039547,23.70101769244636,9.327030183893834C22.125103207939244,7.0329765919494935,22.553580574122904,3.320954613198313,20.118828075610764,1.9725597837136526C17.734059880341132,0.6518468545818097,14.599313126830772,1.7117226899093274,12.164669423391796,2.93806359832368C9.928151669911731,4.064607580760786,8.54900410710613,6.284281480355511,7.276685065258761,8.441204580920147C6.183186388290501,10.294979050384264,5.588936900474876,12.33022373231502,5.361963056508383,14.470481196809274C5.141911626392023,16.545463528027582,5.189588554569567,18.64440515724886,5.990293181928184,20.57127993431428C6.8088349361207685,22.541079291327577,8.238224496441187,24.14705827538014,9.925397240800635,25.452266397074638C11.73248148084039,26.850238853997826,13.787949134586194,27.74326934324008,16,28.314856090582907" fill="#ff0000" strokewidth="0"/>
</g>
<g id="SVGRepo_tracerCarrier" stroke-linecap="round" stroke-linejoin="round"/>
<g id="SVGRepo_iconCarrier"> <path d="M16 4.00195C18.175 4.01406 19.3529 4.11051 20.1213 4.87889C21 5.75757 21 7.17179 21 10.0002V16.0002C21 18.8286 21 20.2429 20.1213 21.1215C19.2426 22.0002 17.8284 22.0002 15 22.0002H9C6.17157 22.0002 4.75736 22.0002 3.87868 21.1215C3 20.2429 3 18.8286 3 16.0002V10.0002C3 7.17179 3 5.75757 3.87868 4.87889C4.64706 4.11051 5.82497 4.01406 8 4.00195" stroke="#000000" stroke-width="1.176"/> <path d="M8 14H16" stroke="#000000" stroke-width="1.176" stroke-linecap="round"/> <path d="M7 10.5H17" stroke="#000000" stroke-width="1.176" stroke-linecap="round"/> <path d="M9 17.5H15" stroke="#000000" stroke-width="1.176" stroke-linecap="round"/> <path d="M8 3.5C8 2.67157 8.67157 2 9.5 2H14.5C15.3284 2 16 2.67157 16 3.5V4.5C16 5.32843 15.3284 6 14.5 6H9.5C8.67157 6 8 5.32843 8 4.5V3.5Z" stroke="#000000" stroke-width="1.176"/> </g>
</svg>